<svg xmlns="http://www.w3.org/2000/svg" viewBox="0 0 353 353"><path d="M176.5 338C115.57 338 66 288.43 66 227.5v-117C66 49.57 115.57 0 176.5 0S287 49.57 287 110.5v117c0 60.93-49.57 110.5-110.5 110.5zm0-288c-33.359 0-60.5 27.14-60.5 60.5v117c0 33.36 27.141 60.5 60.5 60.5s60.5-27.14 60.5-60.5v-117c0-33.36-27.141-60.5-60.5-60.5z" fill="#6da8d6"/><path d="M176.5 0v50c33.359 0 60.5 27.14 60.5 60.5v117c0 33.36-27.141 60.5-60.5 60.5v50c60.93 0 110.5-49.57 110.5-110.5v-117C287 49.57 237.43 0 176.5 0z" fill="#2974a8"/><path fill="#f9e375" d="M41.5 149.357h270V353h-270z"/><path fill="#f5d361" d="M176.5 149.357h135V353h-135z"/><path d="M216.5 233c0-22.091-17.909-40-40-40s-40 17.909-40 40c0 14.803 8.047 27.718 20 34.635V303h40v-35.365c11.953-6.917 20-19.832 20-34.635z" fill="#dedfe8"/><path d="M176.5 193v110h20v-35.365c11.953-6.917 20-19.832 20-34.635 0-22.091-17.909-40-40-40z" fill="#c9c7d7"/></svg>